Wir.Sind.Die.Nacht.2010.DVDRip.XViD.AC3-LuCiFeR.avi
Format                           : AVI
Format/Info                      : Audio Video Interleave
File size                        : 1.28 GiB
Duration                         : 1h 35mn
Overall bit rate                 : 1 921 Kbps
Writing application              : VirtualDubMod 1.5.10.2 (build 2542/release)
Writing library                  : VirtualDubMod build 2542/release

Video
ID                               : 0
Format                           : MPEG-4 Visual
Format profile                   : Advanced Simple@L5
Format settings, BVOP            : 2
Format settings, QPel            : Yes
Format settings, GMC             : 3 warppoints
Format settings, Matrix          : Default (MPEG)
Codec ID                         : XVID
Codec ID/Hint                    : XviD
Duration                         : 1h 35mn
Bit rate                         : 1 463 Kbps
Width                            : 704 pixels
Height                           : 288 pixels
Display aspect ratio             : 2.40:1
Frame rate                       : 25.000 fps
Color space                      : YUV
Chroma subsampling               : 4:2:0
Bit depth                        : 8 bits
Scan type                        : Progressive
Compression mode                 : Lossy
Bits/(Pixel*Frame)               : 0.289
Stream size                      : 1 002 MiB (76%)
Writing library                  : XviD 58

Audio
ID                               : 1
Format                           : AC-3
Format/Info                      : Audio Coding 3
Mode extension                   : CM (complete main)
Codec ID                         : 2000
Duration                         : 1h 35mn
Bit rate mode                    : Constant
Bit rate                         : 448 Kbps
Channel(s)                       : 6 channels
Channel positions                : Front: L C R, Side: L R, LFE
Sampling rate                    : 48.0 KHz
Bit depth                        : 16 bits
Compression mode                 : Lossy
Stream size                      : 307 MiB (23%)
Alignment                        : Split accross interleaves
Interleave, duration             : 40 ms (1.00 video frame)
Interleave, preload duration     : 500 ms
  
 
One night, 18 year old LENA is bitten by LOUISE, leader of a female vampire trio that are as deadly as
they are beautiful. Her newfound vampiric lifestyle is a blessing and a curse at the same time. At first, she
enjoys the limitless freedom,the luxury, the parties. But soon the murderous blood lust of her comrades in
arms proves too much for her, and she falls dangerously in love with TOM, a young undercover cop. When
she resolves to turn her back on the bloodsucking band of sisters, Louise fury knows no bounds. Lena will
have to choose between immortal love and immortal life…
